<mxfile host="app.diagrams.net" agent="Mozilla/5.0 (Windows NT 10.0; Win64; x64) AppleWebKit/537.36 (KHTML, like Gecko) Chrome/141.0.0.0 Safari/537.36" version="28.2.5">
  <diagram name="Página-1" id="pykxd99a8eA-za5mrAO4">
    <mxGraphModel grid="1" page="1" gridSize="10" guides="1" tooltips="1" connect="1" arrows="1" fold="1" pageScale="1" pageWidth="827" pageHeight="1169" math="0" shadow="0">
      <root>
        <mxCell id="0" />
        <mxCell id="1" parent="0" />
        <mxCell id="EBXGKGWkB09iLzEwU4NJ-7" value="&lt;div style=&quot;display: flex; justify-content: flex-start; text-align: left; align-items: baseline; font-size: 0; line-height: 1.25;margin-top: -2px;&quot;&gt;&lt;span&gt;&lt;br&gt;&lt;/span&gt;&lt;/div&gt;" style="html=1;overflow=block;blockSpacing=1;whiteSpace=wrap;fontSize=13;spacing=3.8;strokeOpacity=100;fillOpacity=100;rounded=1;absoluteArcSize=1;arcSize=37;fillColor=#ffffff;strokeWidth=1.5;lucidId=oJzHDDHh~Keg;" vertex="1" parent="1">
          <mxGeometry x="5615" y="825" width="258" height="290" as="geometry" />
        </mxCell>
        <mxCell id="EBXGKGWkB09iLzEwU4NJ-8" style="edgeStyle=orthogonalEdgeStyle;rounded=0;orthogonalLoop=1;jettySize=auto;html=1;exitX=0.25;exitY=1;exitDx=0;exitDy=0;entryX=1;entryY=0.25;entryDx=0;entryDy=0;" edge="1" parent="1" source="EBXGKGWkB09iLzEwU4NJ-9" target="EBXGKGWkB09iLzEwU4NJ-17">
          <mxGeometry relative="1" as="geometry">
            <Array as="points">
              <mxPoint x="6070" y="1549" />
              <mxPoint x="6070" y="2060" />
              <mxPoint x="5530" y="2060" />
            </Array>
          </mxGeometry>
        </mxCell>
        <mxCell id="EBXGKGWkB09iLzEwU4NJ-9" value="&lt;div style=&quot;display: flex; justify-content: center; align-items: baseline; font-size: 0px; line-height: 1.25; margin-top: -2px;&quot;&gt;&lt;span style=&quot;&quot;&gt;&lt;br&gt;&lt;/span&gt;&lt;/div&gt;" style="html=1;overflow=block;blockSpacing=1;whiteSpace=wrap;fontSize=13;spacing=3.8;strokeOpacity=100;fillOpacity=100;rounded=1;absoluteArcSize=1;arcSize=9;fillColor=#ffffff;strokeWidth=1.5;lucidId=JLzHYAGDdfgJ;align=center;" vertex="1" parent="1">
          <mxGeometry x="6066" y="1229" width="315" height="320" as="geometry" />
        </mxCell>
        <mxCell id="EBXGKGWkB09iLzEwU4NJ-11" style="edgeStyle=orthogonalEdgeStyle;rounded=0;orthogonalLoop=1;jettySize=auto;html=1;exitX=1;exitY=0.25;exitDx=0;exitDy=0;entryX=0;entryY=0.5;entryDx=0;entryDy=0;shape=wire;dashed=1;endArrow=none;endFill=0;" edge="1" parent="1" source="EBXGKGWkB09iLzEwU4NJ-13" target="EBXGKGWkB09iLzEwU4NJ-43">
          <mxGeometry relative="1" as="geometry" />
        </mxCell>
        <mxCell id="EBXGKGWkB09iLzEwU4NJ-12" style="edgeStyle=orthogonalEdgeStyle;rounded=0;orthogonalLoop=1;jettySize=auto;html=1;exitX=0;exitY=0.5;exitDx=0;exitDy=0;entryX=1;entryY=0.25;entryDx=0;entryDy=0;endArrow=none;endFill=0;" edge="1" parent="1" source="EBXGKGWkB09iLzEwU4NJ-13" target="EBXGKGWkB09iLzEwU4NJ-90">
          <mxGeometry relative="1" as="geometry" />
        </mxCell>
        <mxCell id="EBXGKGWkB09iLzEwU4NJ-13" value="&lt;div style=&quot;display: flex; justify-content: center; text-align: center; align-items: baseline; font-size: 0; line-height: 1.25;margin-top: -2px;&quot;&gt;&lt;span&gt;&lt;br&gt;&lt;/span&gt;&lt;/div&gt;" style="html=1;overflow=block;blockSpacing=1;whiteSpace=wrap;fontSize=13;spacing=3.8;strokeOpacity=100;fillOpacity=100;rounded=1;absoluteArcSize=1;arcSize=9;fillColor=#ffffff;strokeWidth=1.5;lucidId=tOzHGIA8UjvC;" vertex="1" parent="1">
          <mxGeometry x="4520" y="1287" width="390" height="394" as="geometry" />
        </mxCell>
        <mxCell id="EBXGKGWkB09iLzEwU4NJ-14" value="&lt;div style=&quot;display: flex; justify-content: center; text-align: center; align-items: baseline; font-size: 0; line-height: 1.25;margin-top: -2px;&quot;&gt;&lt;span&gt;&lt;br&gt;&lt;/span&gt;&lt;/div&gt;" style="html=1;overflow=block;blockSpacing=1;whiteSpace=wrap;fontSize=13;spacing=3.8;strokeOpacity=100;fillOpacity=100;rounded=1;absoluteArcSize=1;arcSize=9;fillColor=#ffffff;strokeWidth=1.5;lucidId=wPzHekmR0M1P;" vertex="1" parent="1">
          <mxGeometry x="3930" y="1411" width="260" height="270" as="geometry" />
        </mxCell>
        <mxCell id="EBXGKGWkB09iLzEwU4NJ-15" style="edgeStyle=orthogonalEdgeStyle;rounded=0;orthogonalLoop=1;jettySize=auto;html=1;exitX=0.25;exitY=0;exitDx=0;exitDy=0;entryX=0;entryY=0.5;entryDx=0;entryDy=0;endArrow=none;endFill=0;" edge="1" parent="1" source="EBXGKGWkB09iLzEwU4NJ-17" target="EBXGKGWkB09iLzEwU4NJ-95">
          <mxGeometry relative="1" as="geometry" />
        </mxCell>
        <mxCell id="EBXGKGWkB09iLzEwU4NJ-17" value="&lt;div style=&quot;display: flex; justify-content: center; text-align: center; align-items: baseline; font-size: 0; line-height: 1.25;margin-top: -2px;&quot;&gt;&lt;span&gt;&lt;br&gt;&lt;/span&gt;&lt;/div&gt;" style="html=1;overflow=block;blockSpacing=1;whiteSpace=wrap;fontSize=13;spacing=3.8;strokeOpacity=100;fillOpacity=100;rounded=1;absoluteArcSize=1;arcSize=9;fillColor=#ffffff;strokeWidth=1.5;lucidId=pQzHjC2g94SA;" vertex="1" parent="1">
          <mxGeometry x="5166" y="2030" width="420" height="500" as="geometry" />
        </mxCell>
        <mxCell id="EBXGKGWkB09iLzEwU4NJ-19" style="edgeStyle=orthogonalEdgeStyle;rounded=0;orthogonalLoop=1;jettySize=auto;html=1;exitX=0;exitY=0.75;exitDx=0;exitDy=0;endArrow=none;endFill=0;" edge="1" parent="1" source="EBXGKGWkB09iLzEwU4NJ-20">
          <mxGeometry relative="1" as="geometry">
            <mxPoint x="5500" y="2020.0000000000005" as="targetPoint" />
          </mxGeometry>
        </mxCell>
        <mxCell id="EBXGKGWkB09iLzEwU4NJ-20" value="&lt;div style=&quot;display: flex; justify-content: center; text-align: center; align-items: baseline; font-size: 0; line-height: 1.25;margin-top: -2px;&quot;&gt;&lt;span&gt;&lt;br&gt;&lt;/span&gt;&lt;/div&gt;" style="html=1;overflow=block;blockSpacing=1;whiteSpace=wrap;fontSize=13;spacing=3.8;strokeOpacity=100;fillOpacity=100;rounded=1;absoluteArcSize=1;arcSize=9;fillColor=#ffffff;strokeWidth=1.5;lucidId=~RzHCrl8J2Zh;" vertex="1" parent="1">
          <mxGeometry x="6647.5" y="1523" width="315" height="336" as="geometry" />
        </mxCell>
        <mxCell id="EBXGKGWkB09iLzEwU4NJ-24" value="&lt;div style=&quot;text-align: left;&quot;&gt;&lt;br&gt;&lt;/div&gt;" style="html=1;overflow=block;blockSpacing=1;whiteSpace=wrap;fontSize=13;spacing=3.8;strokeOpacity=100;fillOpacity=100;rounded=1;absoluteArcSize=1;arcSize=9;fillColor=#ffffff;strokeWidth=1.5;lucidId=B9zHbpdB2686;" vertex="1" parent="1">
          <mxGeometry x="4700" y="2750" width="255" height="207" as="geometry" />
        </mxCell>
        <mxCell id="EBXGKGWkB09iLzEwU4NJ-26" value="PRODUCTO" style="text;html=1;align=center;verticalAlign=middle;resizable=0;points=[];autosize=1;strokeColor=none;fillColor=none;fontSize=17;" vertex="1" parent="1">
          <mxGeometry x="4655" y="1250" width="120" height="30" as="geometry" />
        </mxCell>
        <mxCell id="EBXGKGWkB09iLzEwU4NJ-27" value="CATEGORÍA" style="text;html=1;align=center;verticalAlign=middle;resizable=0;points=[];autosize=1;strokeColor=none;fillColor=none;fontSize=16;" vertex="1" parent="1">
          <mxGeometry x="3983" y="1374" width="120" height="30" as="geometry" />
        </mxCell>
        <mxCell id="EBXGKGWkB09iLzEwU4NJ-28" value="DETALLE PEDIDO" style="text;html=1;align=center;verticalAlign=middle;resizable=0;points=[];autosize=1;strokeColor=none;fillColor=none;fontSize=14;" vertex="1" parent="1">
          <mxGeometry x="4745" y="2710" width="140" height="30" as="geometry" />
        </mxCell>
        <mxCell id="EBXGKGWkB09iLzEwU4NJ-29" value="PEDIDO" style="text;html=1;align=center;verticalAlign=middle;resizable=0;points=[];autosize=1;strokeColor=none;fillColor=none;fontSize=17;" vertex="1" parent="1">
          <mxGeometry x="5285" y="2040" width="90" height="30" as="geometry" />
        </mxCell>
        <mxCell id="EBXGKGWkB09iLzEwU4NJ-31" value="PAGO" style="text;html=1;align=center;verticalAlign=middle;resizable=0;points=[];autosize=1;strokeColor=none;fillColor=none;fontSize=17;" vertex="1" parent="1">
          <mxGeometry x="6787.5" y="1490" width="70" height="30" as="geometry" />
        </mxCell>
        <mxCell id="EBXGKGWkB09iLzEwU4NJ-35" value="PROOVEDOR" style="text;html=1;align=center;verticalAlign=middle;resizable=0;points=[];autosize=1;strokeColor=none;fillColor=none;fontSize=15;" vertex="1" parent="1">
          <mxGeometry x="5684" y="795" width="120" height="30" as="geometry" />
        </mxCell>
        <mxCell id="EBXGKGWkB09iLzEwU4NJ-36" value="CLIENTE" style="text;html=1;align=center;verticalAlign=middle;resizable=0;points=[];autosize=1;strokeColor=none;fillColor=none;fontSize=17;" vertex="1" parent="1">
          <mxGeometry x="6161" y="1199" width="100" height="30" as="geometry" />
        </mxCell>
        <mxCell id="EBXGKGWkB09iLzEwU4NJ-42" value="&lt;font style=&quot;font-size: 19px;&quot;&gt;(1;N)&lt;/font&gt;" style="text;html=1;align=center;verticalAlign=middle;whiteSpace=wrap;rounded=0;" vertex="1" parent="1">
          <mxGeometry x="4250" y="1429" width="60" height="30" as="geometry" />
        </mxCell>
        <mxCell id="EBXGKGWkB09iLzEwU4NJ-43" value="" style="rounded=0;whiteSpace=wrap;html=1;" vertex="1" parent="1">
          <mxGeometry x="5130" y="870" width="230" height="208" as="geometry" />
        </mxCell>
        <mxCell id="EBXGKGWkB09iLzEwU4NJ-44" value="&lt;font style=&quot;font-size: 16px;&quot;&gt;ProductoProveedor&lt;/font&gt;" style="text;html=1;align=center;verticalAlign=middle;whiteSpace=wrap;rounded=0;" vertex="1" parent="1">
          <mxGeometry x="5215" y="820" width="60" height="30" as="geometry" />
        </mxCell>
        <mxCell id="EBXGKGWkB09iLzEwU4NJ-47" value="&lt;font style=&quot;font-size: 19px;&quot;&gt;(1;N)&lt;/font&gt;" style="text;html=1;align=center;verticalAlign=middle;whiteSpace=wrap;rounded=0;" vertex="1" parent="1">
          <mxGeometry x="5215" y="2810" width="60" height="30" as="geometry" />
        </mxCell>
        <mxCell id="EBXGKGWkB09iLzEwU4NJ-48" value="&lt;font style=&quot;font-size: 18px;&quot;&gt;(1;N)&lt;/font&gt;" style="text;html=1;align=center;verticalAlign=middle;whiteSpace=wrap;rounded=0;" vertex="1" parent="1">
          <mxGeometry x="5921" y="2030" width="60" height="30" as="geometry" />
        </mxCell>
        <mxCell id="EBXGKGWkB09iLzEwU4NJ-52" value="&lt;font style=&quot;font-size: 20px;&quot;&gt;(1; N)&lt;/font&gt;" style="text;html=1;align=center;verticalAlign=middle;whiteSpace=wrap;rounded=0;" vertex="1" parent="1">
          <mxGeometry x="5921" y="1310" width="60" height="30" as="geometry" />
        </mxCell>
        <mxCell id="EBXGKGWkB09iLzEwU4NJ-53" value="&lt;font style=&quot;font-size: 21px;&quot;&gt;(1;N)&lt;/font&gt;" style="text;html=1;align=center;verticalAlign=middle;whiteSpace=wrap;rounded=0;" vertex="1" parent="1">
          <mxGeometry x="5040" y="930" width="60" height="30" as="geometry" />
        </mxCell>
        <mxCell id="EBXGKGWkB09iLzEwU4NJ-54" value="&lt;font style=&quot;font-size: 21px;&quot;&gt;(1;N)&lt;/font&gt;" style="text;html=1;align=center;verticalAlign=middle;whiteSpace=wrap;rounded=0;" vertex="1" parent="1">
          <mxGeometry x="5480" y="955" width="60" height="30" as="geometry" />
        </mxCell>
        <mxCell id="EBXGKGWkB09iLzEwU4NJ-69" value="&lt;font style=&quot;font-size: 19px;&quot;&gt;(1;N)&lt;/font&gt;" style="text;html=1;align=center;verticalAlign=middle;whiteSpace=wrap;rounded=0;" vertex="1" parent="1">
          <mxGeometry x="7440" y="1730" width="60" height="30" as="geometry" />
        </mxCell>
        <mxCell id="EBXGKGWkB09iLzEwU4NJ-75" value="" style="rounded=0;whiteSpace=wrap;html=1;" vertex="1" parent="1">
          <mxGeometry x="7430" y="2540" width="330" height="390" as="geometry" />
        </mxCell>
        <mxCell id="EBXGKGWkB09iLzEwU4NJ-76" value="&lt;font style=&quot;font-size: 22px;&quot;&gt;FACTURA&lt;/font&gt;" style="text;html=1;align=center;verticalAlign=middle;whiteSpace=wrap;rounded=0;" vertex="1" parent="1">
          <mxGeometry x="7565" y="2481" width="60" height="30" as="geometry" />
        </mxCell>
        <mxCell id="EBXGKGWkB09iLzEwU4NJ-78" value="&lt;div style=&quot;text-align: center;&quot;&gt;&lt;br&gt;&lt;/div&gt;" style="text;whiteSpace=wrap;html=1;" vertex="1" parent="1">
          <mxGeometry x="7530" y="2570" width="220" height="200" as="geometry" />
        </mxCell>
        <mxCell id="EBXGKGWkB09iLzEwU4NJ-79" style="edgeStyle=orthogonalEdgeStyle;rounded=0;orthogonalLoop=1;jettySize=auto;html=1;exitX=0.75;exitY=1;exitDx=0;exitDy=0;entryX=0;entryY=0.75;entryDx=0;entryDy=0;endArrow=none;endFill=0;" edge="1" parent="1" source="EBXGKGWkB09iLzEwU4NJ-17" target="EBXGKGWkB09iLzEwU4NJ-75">
          <mxGeometry relative="1" as="geometry">
            <mxPoint x="6190" y="2969" as="sourcePoint" />
            <mxPoint x="7239" y="2900" as="targetPoint" />
            <Array as="points">
              <mxPoint x="5500" y="2530" />
              <mxPoint x="5500" y="2989" />
              <mxPoint x="6689" y="2989" />
              <mxPoint x="6689" y="2900" />
              <mxPoint x="7430" y="2900" />
            </Array>
          </mxGeometry>
        </mxCell>
        <mxCell id="EBXGKGWkB09iLzEwU4NJ-80" value="&lt;font style=&quot;font-size: 19px;&quot;&gt;(1;N)&lt;/font&gt;" style="text;html=1;align=center;verticalAlign=middle;whiteSpace=wrap;rounded=0;" vertex="1" parent="1">
          <mxGeometry x="6280" y="2950" width="60" height="30" as="geometry" />
        </mxCell>
        <mxCell id="EBXGKGWkB09iLzEwU4NJ-88" style="edgeStyle=orthogonalEdgeStyle;rounded=0;orthogonalLoop=1;jettySize=auto;html=1;exitX=0.5;exitY=1;exitDx=0;exitDy=0;entryX=0;entryY=0;entryDx=0;entryDy=0;endArrow=none;endFill=0;" edge="1" parent="1" source="EBXGKGWkB09iLzEwU4NJ-89" target="EBXGKGWkB09iLzEwU4NJ-93">
          <mxGeometry relative="1" as="geometry">
            <Array as="points">
              <mxPoint x="4697" y="2750" />
            </Array>
          </mxGeometry>
        </mxCell>
        <mxCell id="EBXGKGWkB09iLzEwU4NJ-89" value="Atributos:&lt;br&gt;&lt;br&gt;IdProducto: int&lt;br&gt;&lt;br&gt;Nombre: string&amp;nbsp;&lt;br&gt;&lt;br&gt;Descripcion: string&amp;nbsp;&lt;br&gt;&lt;br&gt;Tallas: string&lt;br&gt;&lt;br&gt;Colores: string&lt;br&gt;&lt;br&gt;Imagen: string&lt;br&gt;&lt;br&gt;IdCategoria: int" style="text;whiteSpace=wrap;html=1;" vertex="1" parent="1">
          <mxGeometry x="4537" y="1296" width="320" height="376" as="geometry" />
        </mxCell>
        <mxCell id="EBXGKGWkB09iLzEwU4NJ-90" value="Atributos:&lt;br&gt;&lt;br&gt;IdCategoria: int&lt;br&gt;&lt;br&gt;Nombre: string&amp;nbsp;&lt;br&gt;&lt;br&gt;Subcategorias: string&lt;div&gt;&lt;br&gt;&lt;/div&gt;&lt;div&gt;&lt;br&gt;&lt;/div&gt;" style="text;whiteSpace=wrap;html=1;" vertex="1" parent="1">
          <mxGeometry x="3950" y="1415" width="255" height="266" as="geometry" />
        </mxCell>
        <mxCell id="EBXGKGWkB09iLzEwU4NJ-92" style="edgeStyle=orthogonalEdgeStyle;rounded=0;orthogonalLoop=1;jettySize=auto;html=1;exitX=1;exitY=0.5;exitDx=0;exitDy=0;endArrow=none;endFill=0;" edge="1" parent="1" source="EBXGKGWkB09iLzEwU4NJ-93" target="EBXGKGWkB09iLzEwU4NJ-94">
          <mxGeometry relative="1" as="geometry" />
        </mxCell>
        <mxCell id="EBXGKGWkB09iLzEwU4NJ-93" value="Atributos:&lt;br&gt;&lt;br&gt;IdPedidoDetalle: int&amp;nbsp;&amp;nbsp;&lt;br&gt;&lt;br&gt;IdProducto: int&amp;nbsp;&lt;br&gt;&lt;br&gt;IdPedido: int&amp;nbsp;&lt;div&gt;&lt;br&gt;Cantidad: int&amp;nbsp;&lt;br&gt;&lt;br&gt;PrecioUnitario: double)&amp;nbsp;&lt;br&gt;&lt;br&gt;Subtotal: double&amp;nbsp;&lt;/div&gt;" style="text;whiteSpace=wrap;html=1;" vertex="1" parent="1">
          <mxGeometry x="4702.5" y="2750" width="250" height="210" as="geometry" />
        </mxCell>
        <mxCell id="EBXGKGWkB09iLzEwU4NJ-94" value="Atributos:&lt;br&gt;&lt;br&gt;IdPedido: int&amp;nbsp;&amp;nbsp;&lt;br&gt;&lt;br&gt;FechaPedido: Date&amp;nbsp;&lt;br&gt;&lt;br&gt;Total: double&amp;nbsp;&lt;br&gt;&lt;br&gt;DireccionEntrega: string&amp;nbsp;&lt;br&gt;&lt;br&gt;IdCliente: int&lt;br&gt;&lt;br&gt;&lt;div&gt;&lt;br&gt;&lt;/div&gt;" style="text;whiteSpace=wrap;html=1;" vertex="1" parent="1">
          <mxGeometry x="5190" y="2080" width="250" height="440" as="geometry" />
        </mxCell>
        <mxCell id="EBXGKGWkB09iLzEwU4NJ-95" value="&lt;div&gt;&lt;div&gt;&lt;span style=&quot;font-size: 14.7px;&quot;&gt;Atributos:&lt;/span&gt;&lt;/div&gt;&lt;ul style=&quot;text-align: center; font-size: 13px; margin: 0px; padding-left: 10px; list-style-position: inside;&quot;&gt;&lt;li style=&quot;text-align: left; font-size: 14.7px;&quot;&gt;&lt;span style=&quot;margin-left: 0px; margin-top: -2px;&quot;&gt;&lt;span style=&quot;font-size: 14.7px;&quot;&gt;idUsuario (int)&lt;/span&gt;&lt;span style=&quot;font-size: 16px;&quot;&gt;&lt;/span&gt;&lt;/span&gt;&lt;/li&gt;&lt;li style=&quot;text-align: left; font-size: 14.7px;&quot;&gt;&lt;span style=&quot;margin-left: 0px; margin-top: -2px;&quot;&gt;&lt;span style=&quot;font-size: 14.7px;&quot;&gt;nombre (string)&lt;/span&gt;&lt;span style=&quot;font-size: 16px;&quot;&gt;&lt;/span&gt;&lt;/span&gt;&lt;/li&gt;&lt;li style=&quot;text-align: left; font-size: 14.7px;&quot;&gt;&lt;span style=&quot;margin-left: 0px; margin-top: -2px;&quot;&gt;&lt;span style=&quot;font-size: 14.7px;&quot;&gt;apellido (string)&lt;/span&gt;&lt;span style=&quot;font-size: 16px;&quot;&gt;&lt;/span&gt;&lt;/span&gt;&lt;/li&gt;&lt;li style=&quot;text-align: left; font-size: 14.7px;&quot;&gt;&lt;span style=&quot;margin-left: 0px; margin-top: -2px;&quot;&gt;&lt;span style=&quot;font-size: 14.7px;&quot;&gt;email (string)&lt;/span&gt;&lt;/span&gt;&lt;/li&gt;&lt;li style=&quot;text-align: left; font-size: 14.7px;&quot;&gt;&lt;span style=&quot;margin-left: 0px; margin-top: -2px;&quot;&gt;&lt;span style=&quot;font-size: 14.7px;&quot;&gt;DNI (int)&lt;/span&gt;&lt;/span&gt;&lt;/li&gt;&lt;li style=&quot;text-align: left; font-size: 14.7px;&quot;&gt;&lt;span style=&quot;margin-left: 0px; margin-top: -2px;&quot;&gt;&lt;span style=&quot;font-size: 14.7px;&quot;&gt;Teléfono (int)&lt;/span&gt;&lt;/span&gt;&lt;/li&gt;&lt;/ul&gt;&lt;br&gt;&lt;/div&gt;" style="text;whiteSpace=wrap;html=1;" vertex="1" parent="1">
          <mxGeometry x="6098.5" y="1270" width="250" height="220" as="geometry" />
        </mxCell>
        <mxCell id="EBXGKGWkB09iLzEwU4NJ-96" value="Atributos:&lt;br&gt;&lt;div&gt;&lt;li data-end=&quot;1286&quot; data-start=&quot;1247&quot;&gt;&lt;p data-end=&quot;1286&quot; data-start=&quot;1249&quot;&gt;idProveedor: &lt;strong data-end=&quot;1284&quot; data-start=&quot;1262&quot;&gt;int&amp;nbsp;&lt;/strong&gt;&lt;/p&gt;&lt;/li&gt;&lt;li data-end=&quot;1320&quot; data-start=&quot;1287&quot;&gt;&lt;p data-end=&quot;1320&quot; data-start=&quot;1289&quot;&gt;nombre: &lt;strong data-end=&quot;1318&quot; data-start=&quot;1297&quot;&gt;string&amp;nbsp;&lt;/strong&gt;&lt;/p&gt;&lt;/li&gt;&lt;li data-end=&quot;1356&quot; data-start=&quot;1321&quot;&gt;&lt;p data-end=&quot;1356&quot; data-start=&quot;1323&quot;&gt;apellido: &lt;strong data-end=&quot;1354&quot; data-start=&quot;1333&quot;&gt;string&lt;/strong&gt;&lt;/p&gt;&lt;/li&gt;&lt;li data-end=&quot;1388&quot; data-start=&quot;1357&quot;&gt;&lt;p data-end=&quot;1388&quot; data-start=&quot;1359&quot;&gt;telefono: &lt;strong data-end=&quot;1386&quot; data-start=&quot;1369&quot;&gt;string&amp;nbsp;&lt;/strong&gt;&lt;/p&gt;&lt;/li&gt;&lt;li data-end=&quot;1430&quot; data-start=&quot;1389&quot;&gt;&lt;p data-end=&quot;1430&quot; data-start=&quot;1391&quot;&gt;correo: &lt;strong data-end=&quot;1428&quot; data-start=&quot;1399&quot;&gt;string )&lt;/strong&gt;&lt;/p&gt;&lt;/li&gt;&lt;br&gt;&lt;/div&gt;" style="text;whiteSpace=wrap;html=1;" vertex="1" parent="1">
          <mxGeometry x="5635" y="850" width="230" height="195" as="geometry" />
        </mxCell>
        <mxCell id="EBXGKGWkB09iLzEwU4NJ-103" value="Atributos&lt;br&gt;&lt;br&gt;idFactura: int&amp;nbsp;&lt;br&gt;&lt;br&gt;fecha: datetime&lt;br&gt;&lt;br&gt;tipo: string ( valores posibles {A, B, C})&lt;br&gt;&lt;br&gt;&lt;br&gt;total: double&lt;br&gt;&lt;br&gt;formaPago: string&amp;nbsp;&lt;br&gt;&lt;br&gt;idPedido: int" style="text;whiteSpace=wrap;html=1;" vertex="1" parent="1">
          <mxGeometry x="7450" y="2570" width="310" height="240" as="geometry" />
        </mxCell>
        <mxCell id="EBXGKGWkB09iLzEwU4NJ-104" value="Atributos:&lt;br&gt;&lt;br&gt;idPago: int&amp;nbsp;&lt;br&gt;&lt;br&gt;monto: double&amp;nbsp;&lt;br&gt;&lt;br&gt;metodoPago: enum&amp;nbsp;&lt;br&gt;&lt;br&gt;fechaPago: datetime&lt;br&gt;&lt;br&gt;&lt;div&gt;Id Pedido int&amp;nbsp;&lt;/div&gt;&lt;div&gt;&lt;br&gt;&lt;/div&gt;&lt;div&gt;idFactura: int&amp;nbsp;&lt;br&gt;&lt;br&gt;&lt;/div&gt;" style="text;whiteSpace=wrap;html=1;" vertex="1" parent="1">
          <mxGeometry x="6687.5" y="1529" width="210" height="330" as="geometry" />
        </mxCell>
        <mxCell id="EBXGKGWkB09iLzEwU4NJ-106" style="edgeStyle=orthogonalEdgeStyle;rounded=0;orthogonalLoop=1;jettySize=auto;html=1;exitX=1;exitY=0.75;exitDx=0;exitDy=0;endArrow=none;endFill=0;" edge="1" parent="1" source="EBXGKGWkB09iLzEwU4NJ-107">
          <mxGeometry relative="1" as="geometry">
            <mxPoint x="5610" y="991" as="targetPoint" />
          </mxGeometry>
        </mxCell>
        <mxCell id="EBXGKGWkB09iLzEwU4NJ-107" value="Atributos:&lt;br&gt;&lt;br&gt;idProducto: int&amp;nbsp;&lt;br&gt;&lt;br&gt;idProveedor: int&amp;nbsp;&lt;br&gt;&lt;br&gt;precio: double&amp;nbsp;&lt;br&gt;&lt;br&gt;fechaAlta: datetime" style="text;whiteSpace=wrap;html=1;" vertex="1" parent="1">
          <mxGeometry x="5140" y="880" width="220" height="150" as="geometry" />
        </mxCell>
        <mxCell id="EBXGKGWkB09iLzEwU4NJ-111" value="&lt;font style=&quot;font-size: 19px;&quot;&gt;(1;N)&lt;/font&gt;" style="text;html=1;align=center;verticalAlign=middle;whiteSpace=wrap;rounded=0;" vertex="1" parent="1">
          <mxGeometry x="4622" y="2470" width="60" height="30" as="geometry" />
        </mxCell>
        <mxCell id="EBXGKGWkB09iLzEwU4NJ-113" style="edgeStyle=orthogonalEdgeStyle;rounded=0;orthogonalLoop=1;jettySize=auto;html=1;exitX=1;exitY=0.75;exitDx=0;exitDy=0;endArrow=none;endFill=0;" edge="1" parent="1" source="EBXGKGWkB09iLzEwU4NJ-20">
          <mxGeometry relative="1" as="geometry">
            <mxPoint x="7700" y="2550" as="targetPoint" />
            <Array as="points">
              <mxPoint x="7700" y="1775" />
            </Array>
          </mxGeometry>
        </mxCell>
        <mxCell id="EBXGKGWkB09iLzEwU4NJ-115" value="&lt;font style=&quot;font-size: 18px;&quot;&gt;(1;1)&lt;/font&gt;" style="text;html=1;align=center;verticalAlign=middle;whiteSpace=wrap;rounded=0;" vertex="1" parent="1">
          <mxGeometry x="6270" y="1739" width="60" height="30" as="geometry" />
        </mxCell>
      </root>
    </mxGraphModel>
  </diagram>
</mxfile>
